<svg xmlns="http://www.w3.org/2000/svg" viewBox="0 0 180 180" role="img" aria-label="AKHI Archive app icon">
  <defs>
    <linearGradient id="g1" x1="0" x2="1" y1="0" y2="1">
      <stop offset="0%" stop-color="#17274e"/>
      <stop offset="100%" stop-color="#05070d"/>
    </linearGradient>
    <linearGradient id="g2" x1="0" x2="1" y1="0" y2="1">
      <stop offset="0%" stop-color="#90b2ff"/>
      <stop offset="100%" stop-color="#d9e5ff"/>
    </linearGradient>
  </defs>
  <rect width="180" height="180" rx="40" fill="url(#g1)"/>
  <g fill="url(#g2)">
    <path d="M84 86c-25-28-52-23-52-5 0 16 21 27 46 19z"/>
    <path d="M96 86c25-28 52-23 52-5 0 16-21 27-46 19z"/>
    <path d="M86 98c-24 23-35 40-24 48 12 8 30-4 31-34z"/>
    <path d="M94 98c24 23 35 40 24 48-12 8-30-4-31-34z"/>
  </g>
  <rect x="88" y="58" width="4" height="66" rx="2" fill="#f5f8ff"/>
  <text x="90" y="154" fill="#f5f8ff" font-family="Segoe UI, Inter, sans-serif" font-weight="700" font-size="16" text-anchor="middle">AKHI</text>
</svg>
